<?xml version="1.0" standalone="no"?>
<!DOCTYPE svg PUBLIC "-//W3C//DTD SVG 20010904//EN"
 "http://www.w3.org/TR/2001/REC-SVG-20010904/DTD/svg10.dtd">
<svg version="1.0" xmlns="http://www.w3.org/2000/svg"
 width="487.000000pt" height="487.000000pt" viewBox="0 0 487.000000 487.000000"
 preserveAspectRatio="xMidYMid meet">
<metadata>
Created by potrace 1.14, written by Peter Selinger 2001-2017
</metadata>
<g transform="translate(0.000000,487.000000) scale(0.100000,-0.100000)"
fill="#000000" stroke="none">
<path d="M1380 4834 c-74 -12 -180 -37 -235 -54 -134 -42 -339 -145 -454 -227
-97 -70 -247 -210 -318 -298 -107 -132 -209 -317 -267 -483 -30 -86 -43 -136
-71 -274 -18 -85 -25 -316 -14 -408 4 -30 10 -77 14 -105 16 -132 96 -372 168
-505 168 -309 427 -556 739 -704 77 -36 259 -101 313 -110 71 -13 89 -17 95
-21 15 -9 153 -19 270 -19 171 -1 280 11 404 45 39 11 78 21 87 23 91 22 303
125 430 209 l27 18 112 -111 113 -111 -20 -27 c-42 -56 -56 -97 -59 -167 -5
-124 -25 -100 663 -786 429 -428 633 -624 667 -642 219 -120 477 -85 647 87
189 190 213 484 58 692 -21 29 -306 320 -634 647 -447 446 -608 601 -643 619
-81 39 -187 28 -273 -28 l-26 -17 -112 113 -112 112 18 27 c132 200 203 373
259 636 28 129 22 487 -10 592 -3 10 -8 34 -11 53 -10 60 -74 241 -117 330
-197 409 -577 730 -1006 850 -113 32 -128 36 -201 46 -25 3 -57 8 -71 11 -14
2 -86 6 -160 7 -105 3 -165 -2 -270 -20z"/>
</g>
</svg>
