<svg id="Livello_1" data-name="Livello 1" xmlns="http://www.w3.org/2000/svg" width="32" height="16" viewBox="0 0 16 8.861"><defs><style>.cls-1{fill:#5e5e5e;}</style></defs><title>case_sense</title><path class="cls-1" d="M6.846,7.112H2.457L1.737,8.7H.022L3.788.3H5.515L9.281,8.7H7.554Zm-2.2-5.049L3.092,5.637H6.21Z"/><path class="cls-1" d="M14.527,2.782h1.451V8.7H14.527V7.832a2.248,2.248,0,0,1-1.919,1.043A2.861,2.861,0,0,1,9.562,5.733a2.879,2.879,0,0,1,3.082-3.095,2.17,2.17,0,0,1,1.883.96Zm-3.5,2.951a1.693,1.693,0,0,0,1.751,1.8,1.794,1.794,0,0,0,0-3.586A1.684,1.684,0,0,0,11.025,5.733Z"/></svg>