<svg id="Livello_1" data-name="Livello 1" xmlns="http://www.w3.org/2000/svg" width="32" height="16" viewBox="0 0 16 10.056"><defs><style>.cls-1{fill:#5e5e5e;}.cls-2{fill:none;stroke:#5e5e5e;stroke-miterlimit:10;}</style></defs><title>case_sense</title><path class="cls-1" d="M5.989,2.429H7.44V8.342H5.989V7.478A2.243,2.243,0,0,1,4.07,8.521,2.86,2.86,0,0,1,1.024,5.379,2.878,2.878,0,0,1,4.106,2.285a2.171,2.171,0,0,1,1.883.959Zm-3.5,2.95a1.694,1.694,0,0,0,1.751,1.8,1.794,1.794,0,0,0,0-3.586A1.684,1.684,0,0,0,2.487,5.379Z"/><path class="cls-1" d="M10.023-.042V3.232a2.449,2.449,0,0,1,1.943-.947,2.831,2.831,0,0,1,3.01,3.094A2.9,2.9,0,0,1,11.93,8.473a2.15,2.15,0,0,1-1.907-.947v.816H8.56V-.042Zm.1,5.421a1.7,1.7,0,1,0,3.394,0,1.631,1.631,0,0,0-1.679-1.727A1.688,1.688,0,0,0,10.119,5.379Z"/><polyline class="cls-2" points="15.441 7.934 15.441 9.579 0.559 9.579 0.559 7.934"/></svg>