<svg id="Livello_1" data-name="Livello 1" xmlns="http://www.w3.org/2000/svg" width="32" height="23" fill="#5e5e5e" viewBox="0 0 383.2756 380.8898"><title>replace</title><path d="M67.48,295.26c-11.7353,12.2554-23.2788,24.31-34.8222,36.3655l-1.0942-.8066V236.5452h94.5184L91.1749,272.2946c6.328,6.53,12.0361,13.3088,18.6329,19.07,24.0012,20.96,52.166,31.5677,84.0039,31.4347,32.1216-.1341,60.3216-11.1821,84.32-32.6007,2.1408-1.9106,3.5911-2.1578,6.06-.7484,8.6632,4.9445,17.4672,9.6425,27.0051,14.8652-34.1385,35.3912-75.1547,53.2671-123.8033,51.5063C138.8013,354.0626,99.1587,333.12,67.48,295.26Z"/><path d="M317.918,92.8533l35.5961-37.0577v95.2223h-93.98l34.0091-34.9327a121.3266,121.3266,0,0,0-23.8821-24.55C220.658,53.5716,152.6062,56.14,106.469,97.74c-1.7718,1.5976-2.9973,1.8469-5.12.6472-8.8918-5.0256-17.9027-9.8405-27.57-15.1145,34.13-35.3041,75.0748-53.2087,123.6426-51.4969C246.049,33.49,285.7227,54.37,317.918,92.8533Z"/><path d="M57.1722,103.395l29.2751,16.2028c-3.8456,7.274-7.5752,14.4113-11.4279,21.4814a2.9745,2.9745,0,0,1-2.2765,1.2909c-10.8018-.613-21.5966-1.3479-33.8411-2.1481Z"/><path d="M298.5585,267.9976c3.8453-7.2726,7.3775-14.1387,11.1453-20.8731a4.4122,4.4122,0,0,1,3.3709-1.8745c10.4618.5484,20.9119,1.32,31.9232,2.0648a153.15,153.15,0,0,1-17.8763,36.4628Z"/><path d="M320.9169,195.8662H354.06c-.7664,8.8939-1.5111,17.5369-2.2817,26.48l-33.186-2.58C319.3689,211.7826,320.1332,203.924,320.9169,195.8662Z"/><path d="M33.2221,165.23l33.19,2.6411c-.7982,8.1175-1.5618,15.8834-2.3435,23.8329h-33.14C31.6974,182.8281,32.4452,174.1965,33.2221,165.23Z"/></svg>